# File exported by Houdini 17.5.425 (www.sidefx.com)
# 60 points
# 230 vertices
# 57 primitives
# Bounds: [-0.809017062, 0, -0.95105654] to [1, 0.200000003, 0.95105648]
g 
v 1 0.0149999997 0
v 0.309017122 0.0149999997 0.95105648
v -0.809016943 0.0149999997 0.587785363
v -0.809017062 0.0149999997 -0.587785184
v 0.309016973 0.0149999997 -0.95105654
v 0.303287625 0 0.933422923
v 0.981458962 0 0
v 0.303287476 0 -0.933422983
v -0.794017076 0 -0.576887071
v -0.794016957 0 0.57688725
v 0.981458962 0.200000003 0
v 0.303287625 0.200000003 0.933422923
v -0.794016957 0.200000003 0.57688725
v -0.794017076 0.200000003 -0.576887071
v 0.303287476 0.200000003 -0.933422983
v 0.309017122 0.185000002 0.95105648
v 1 0.185000002 0
v 0.309016973 0.185000002 -0.95105654
v -0.809017062 0.185000002 -0.587785184
v -0.809016943 0.185000002 0.587785363
v 0.876393199 0.0149999997 4.55338967e-09
v 0.270820379 0.0149999997 -0.833499491
v -0.709017038 0.0149999997 -0.515130937
v -0.709016979 0.0149999997 0.515131116
v 0.270820498 0.0149999997 0.833499432
v 0.276549876 0 -0.851133049
v 0.894934237 0 4.55338967e-09
v 0.276549995 0 0.851132989
v -0.724016964 0 0.526029229
v -0.724017024 0 -0.52602905
v 0.876393199 0.185000002 4.55338967e-09
v 0.270820498 0.185000002 0.833499432
v -0.709016979 0.185000002 0.515131116
v -0.709017038 0.185000002 -0.515130937
v 0.270820379 0.185000002 -0.833499491
v 0.276549995 0.200000003 0.851132989
v 0.894934237 0.200000003 4.55338967e-09
v 0.276549876 0.200000003 -0.851133049
v -0.724017024 0.200000003 -0.52602905
v -0.724016964 0.200000003 0.526029229
v 0.265091002 0.0500000045 0.815865874
v 0.857852161 0.0500000045 4.55338967e-09
v 0.265090883 0.0500000045 -0.815865934
v -0.694017053 0.0500000045 -0.504232824
v -0.694016993 0.0500000045 0.504233003
v 0.876393199 0.0350000039 4.55338967e-09
v 0.270820498 0.0350000039 0.833499432
v -0.709016979 0.0350000039 0.515131116
v -0.709017038 0.0350000039 -0.515130937
v 0.270820379 0.0350000039 -0.833499491
v 0.876393199 0.165000007 4.55338967e-09
v 0.270820379 0.165000007 -0.833499491
v -0.709017038 0.165000007 -0.515130937
v -0.709016979 0.165000007 0.515131116
v 0.270820498 0.165000007 0.833499432
v 0.265090883 0.150000006 -0.815865934
v 0.857852161 0.150000006 4.55338967e-09
v 0.265091002 0.150000006 0.815865874
v -0.694016993 0.150000006 0.504233003
v -0.694017053 0.150000006 -0.504232824
vt 0.620617986 0.391879737 0
vt 0.619437516 0.388246834 0
vt 0.759156704 0.195939884 0
vt 0.762976587 0.195939884 0
vt 0.390276819 0.317037433 0
vt 0.393367171 0.314792156 0
vt 0.39027679 0.0748423934 0
vt 0.393367141 0.0770876557 0
vt 0.620617926 0 0
vt 0.619437516 0.00363292499 0
vt 0.229160771 0.00363292499 0
vt 0.230341166 0 0
vt 0.372699797 0.195939869 0
vt 0.368879944 0.195939869 0
vt 0.00309037231 0.077087611 0
vt 2.45599008e-08 0.0748423412 0
vt 0.00309034786 0.314792097 0
vt 0 0.317037374 0
vt 0.229160741 0.388246834 0
vt 0.230341151 0.391879737 0
vt 0.612748563 0.0242194999 0
vt 0.613928974 0.0205865763 0
vt 0.741330564 0.195939884 0
vt 0.737510741 0.195939884 0
vt 0.410879135 0.0898108631 0
vt 0.407788783 0.0875656009 0
vt 0.410879135 0.302068949 0
vt 0.407788813 0.304314226 0
vt 0.612748623 0.367660254 0
vt 0.613928974 0.371293187 0
vt 0.222471789 0.0242194999 0
vt 0.223652184 0.0205865763 0
vt 0.351053804 0.195939869 0
vt 0.347233921 0.195939869 0
vt 0.0206023548 0.0898108184 0
vt 0.0175120067 0.0875655487 0
vt 0.0206023436 0.302068889 0
vt 0.0175119955 0.304314166 0
vt 0.222471759 0.367660254 0
vt 0.223652184 0.371293187 0
vt 0.322811693 0.581177115 0
vt 0.326631576 0.581177115 0
vt 0.201869443 0.752897441 0
vt 0.200689033 0.749264538 0
vt 0.200689003 0.413089633 0
vt 0.201869413 0.40945673 0
vt 0.00309034786 0.477293342 0
vt 0 0.475048065 0
vt 0.392522067 0.830286264 0
vt 0.39027679 0.827195823 0
vt 0.60253489 0.827195823 0
vt 0.600289583 0.830286264 0
vt 1.22799504e-08 0.687306166 0
vt 0.00309035997 0.685060918 0
vt 0.592146218 0.752897441 0
vt 0.590965807 0.749264538 0
vt 0.713088512 0.581177115 0
vt 0.716908395 0.581177115 0
vt 0.390276819 0.687306106 0
vt 0.393367171 0.685060859 0
vt 0.39027679 0.850953579 0
vt 0.392522067 0.847863197 0
vt 0.600289583 0.847863197 0
vt 0.60253489 0.850953579 0
vt 0.592146277 0.40945673 0
vt 0.590965807 0.413089663 0
vt 0.393367201 0.477293283 0
vt 0.390276819 0.475048006 0
vt 0 0.894348383 0
vt 0.195939869 0.894348383 0
vt 0.195939869 0.92937237 0
vt 0 0.92937237 0
vt 0.390276819 0.770474434 0
vt 0.620617986 0.770474434 0
vt 0.620617986 0.805498362 0
vt 0.390276819 0.805498362 0
vt 0 0.770474434 0
vt 0.24219501 0.770474434 0
vt 0.24219501 0.805498362 0
vt 0 0.805498362 0
vt 0 0.823075414 0
vt 0.230341151 0.823075414 0
vt 0.230341151 0.858099341 0
vt 0 0.858099341 0
vt 0.391879737 0.894348383 0
vt 0.391879737 0.92937237 0
vt 0.40945673 0.894348383 0
vt 0.581177115 0.894348383 0
vt 0.581177115 0.898468852 0
vt 0.40945673 0.898468852 0
vt 0.780553579 0 0
vt 0.982422948 0 0
vt 0.982422948 0.00412046816 0
vt 0.780553579 0.00412046816 0
vt 0.39027679 0.823075414 0
vt 0.60253489 0.823075414 0
vt 0.39027679 0.872650981 0
vt 0.592146218 0.872650981 0
vt 0.592146218 0.87677145 0
vt 0.39027679 0.87677145 0
vt 0.752897441 0.894348383 0
vt 0.752897441 0.898468852 0
vt 0.752897441 0.920166254 0
vt 0.581177115 0.920166254 0
vt 0.581177115 0.916045785 0
vt 0.752897441 0.916045785 0
vt 0.982422948 0.0258179139 0
vt 0.78055352 0.0258179139 0
vt 0.78055352 0.0216974467 0
vt 0.982422948 0.0216974467 0
vt 0.60253489 0.855074048 0
vt 0.39027679 0.855074048 0
vt 0.982422948 0.0475153588 0
vt 0.780553579 0.0475153588 0
vt 0.780553579 0.0433948897 0
vt 0.982422948 0.0433948897 0
vt 0.40945673 0.920166254 0
vt 0.40945673 0.916045785 0
vn 0.57206136 -0.707106888 0.415626854
vn 0.57206136 -0.707106829 0.415626854
vn 0.572061121 -0.707107186 0.415626705
vn 0.572061121 -0.707107127 0.415626705
vn -0.218508109 -0.707106113 0.672499239
vn -0.218508124 -0.707106113 0.67249918
vn -0.218507901 -0.707106769 0.672498524
vn -0.218507901 -0.707106769 0.672498584
vn -0.707107127 -0.707106352 7.17045339e-08
vn -0.707107127 -0.707106471 7.30591267e-08
vn -0.707107008 -0.707106471 7.30591196e-08
vn -0.707107067 -0.707106471 7.17045197e-08
vn -0.218508095 -0.707106709 -0.672498584
vn -0.218508065 -0.707106709 -0.672498584
vn -0.218508258 -0.707106233 -0.67249912
vn -0.218508229 -0.707106173 -0.672499001
vn 0.572061121 -0.707107186 -0.415626764
vn 0.572061062 -0.707107067 -0.415626705
vn 0.572061241 -0.707106888 -0.415626854
vn 0.5720613 -0.707106948 -0.415626884
vn 0.572061419 0.707106829 0.415626854
vn 0.5720613 0.707106829 0.415626854
vn 0.572061181 0.707107186 0.415626734
vn 0.572061181 0.707107127 0.415626705
vn -0.218508109 0.707106054 0.672499239
vn -0.218508139 0.707106113 0.672499239
vn -0.218507916 0.707106769 0.672498584
vn -0.218507901 0.707106769 0.672498584
vn -0.707107127 0.707106411 7.30591267e-08
vn -0.707107127 0.707106352 7.1704541e-08
vn -0.707107067 0.707106471 7.17045268e-08
vn -0.707107067 0.707106471 7.30591196e-08
vn -0.218508065 0.707106709 -0.672498643
vn -0.218508095 0.707106709 -0.672498584
vn -0.218508244 0.707106173 -0.672499001
vn -0.218508244 0.707106113 -0.67249912
vn 0.572061121 0.707107067 -0.415626705
vn 0.572061121 0.707107127 -0.415626764
vn 0.572061241 0.707106888 -0.415626884
vn 0.572061241 0.707106888 -0.415626854
vn -0.5720613 -0.707106829 0.415626854
vn -0.5720613 -0.707106888 0.415626884
vn -0.572061121 -0.707107186 0.415626764
vn -0.572061121 -0.707107067 0.415626705
vn 0.218508273 -0.707106173 0.67249912
vn 0.218508229 -0.707106173 0.672499001
vn 0.218508095 -0.707106709 0.672498584
vn 0.218508095 -0.707106769 0.672498584
vn 0.707107067 -0.707106471 -4.09088798e-08
vn 0.707107067 -0.707106411 -4.00613409e-08
vn 0.707107067 -0.707106411 -4.00613409e-08
vn 0.707107127 -0.707106411 -4.09088834e-08
vn 0.218507886 -0.707106769 -0.672498524
vn 0.218507901 -0.707106709 -0.672498524
vn 0.218508109 -0.707106054 -0.672499239
vn 0.218508109 -0.707106054 -0.67249918
vn -0.572061121 -0.707107127 -0.415626645
vn -0.572061181 -0.707107186 -0.415626764
vn -0.57206136 -0.707106888 -0.415626824
vn -0.57206136 -0.707106829 -0.415626824
vn -0.57206136 0.707106829 -0.415626824
vn -0.5720613 0.707106829 -0.415626824
vn -0.572061181 0.707107127 -0.415626764
vn -0.572061121 0.707107127 -0.415626645
vn 0.218508124 0.707106054 -0.672499239
vn 0.218508139 0.707106113 -0.67249918
vn 0.218507901 0.707106709 -0.672498584
vn 0.218507901 0.707106769 -0.672498584
vn 0.707107246 0.707106411 -4.09088905e-08
vn 0.707107067 0.707106411 -4.00613445e-08
vn 0.707107067 0.707106411 -4.00613445e-08
vn 0.707107127 0.707106471 -4.09088834e-08
vn 0.21850808 0.707106709 0.672498584
vn 0.218508095 0.707106709 0.672498584
vn 0.218508229 0.707106173 0.672499001
vn 0.218508273 0.707106173 0.67249912
vn -0.572061121 0.707107067 0.415626705
vn -0.572061121 0.707107127 0.415626764
vn -0.5720613 0.707106829 0.415626884
vn -0.5720613 0.707106829 0.415626854
vn -0.572061121 -0.707107067 -0.415626645
vn -0.572061181 -0.707107186 -0.415626705
vn -0.57206136 -0.707106829 -0.415626824
vn -0.572061419 -0.707106829 -0.415626854
vn -0.57206136 -0.707106829 0.415626884
vn -0.5720613 -0.707106888 0.415626854
vn -0.572061121 -0.707107067 0.415626705
vn -0.572061121 -0.707107067 0.415626705
vn 0.218508244 -0.707106113 0.672499061
vn 0.218508258 -0.707106113 0.67249912
vn 0.218508095 -0.707106709 0.672498584
vn 0.218508095 -0.707106709 0.672498643
vn 0.707107127 -0.707106531 -4.17930615e-08
vn 0.707107067 -0.707106411 -4.09088798e-08
vn 0.707107127 -0.707106292 -4.09088798e-08
vn 0.707107127 -0.707106411 -4.17930579e-08
vn 0.218507886 -0.707106769 -0.672498524
vn 0.218507901 -0.707106769 -0.672498584
vn 0.218508124 -0.707106113 -0.672499239
vn 0.218508095 -0.707106054 -0.67249918
vn -0.5720613 0.707106888 0.415626854
vn -0.57206136 0.707106829 0.415626884
vn -0.572061121 0.707107067 0.415626705
vn -0.572061121 0.707107067 0.415626705
vn 0.218508258 0.707106113 0.67249912
vn 0.218508244 0.707106113 0.672499061
vn 0.218508095 0.707106709 0.672498643
vn 0.218508095 0.707106709 0.672498584
vn 0.707107067 0.707106411 -4.09088798e-08
vn 0.707107127 0.707106531 -4.17930615e-08
vn 0.707107127 0.707106411 -4.17930579e-08
vn 0.707107127 0.707106292 -4.09088798e-08
vn 0.218507901 0.707106769 -0.672498584
vn 0.218507886 0.707106769 -0.672498524
vn 0.218508095 0.707106054 -0.67249918
vn 0.218508124 0.707106113 -0.672499239
vn -0.572061181 0.707107186 -0.415626705
vn -0.572061121 0.707107067 -0.415626645
vn -0.572061419 0.707106829 -0.415626854
vn -0.57206136 0.707106829 -0.415626824
vn 0.809017062 -0 0.587785184
vn 0.809017062 0 0.587785184
vn 0.809017062 0 0.587785184
vn 0.809017062 -0 0.587785184
vn -0.309016854 -0 0.9510566
vn -0.309016854 -0 0.9510566
vn -0.309016854 -0 0.9510566
vn -0.309016854 -0 0.9510566
vn -1 -0 1.01405483e-07
vn -1 -0 1.01405483e-07
vn -1 -0 1.01405483e-07
vn -1 -0 1.01405483e-07
vn -0.309017062 0 -0.95105654
vn -0.309017062 -0 -0.95105654
vn -0.309017062 -0 -0.95105654
vn -0.309017062 0 -0.95105654
vn 0.809017003 -0 -0.587785244
vn 0.809017003 -0 -0.587785244
vn 0.809017003 -0 -0.587785244
vn 0.809017003 -0 -0.587785244
vn -0 -0.99999994 -0
vn -0 -0.99999994 -0
vn 0 -1 -0
vn -0 -1 0
vn -0 -1 0
vn -0 -0.99999994 -0
vn -0 -1 0
vn 0 -1 -0
vn -0 -1 0
vn 0 -1 -0
vn -0 -1 -0
vn 0 -0.99999994 0
vn 0 -1 -0
vn 0 -0.99999994 0
vn -0 -1 -0
vn -0 -1 0
vn -0 -0.99999994 -0
vn 0 -1 -0
vn -0 -1 0
vn 0 -1 -0
vn 0 1 -0
vn -0 0.99999994 -0
vn 0 1 -0
vn -0 1 0
vn 0 1 -0
vn -0 1 0
vn -0 1 -0
vn 0 0.99999994 0
vn -0 1 0
vn 0 0.99999994 0
vn -0 1 -0
vn 0 1 -0
vn -0 1 0
vn 0 1 -0
vn -0 1 0
vn -0 0.99999994 -0
vn -0 0.99999994 -0
vn -0 1 0
vn 0 1 -0
vn -0 0.99999994 -0
vn -0 -0.99999994 0
vn -0 -0.99999994 -0
vn -0 -0.99999994 -0
vn 0 -0.99999994 -0
vn -0 -0.99999994 -0
vn -0 0.99999994 -0
vn -0 0.99999994 -0
vn -0 0.99999994 0
vn -0 0.99999994 -0
vn 0 0.99999994 -0
vn -0.809017062 -0 0.587785244
vn -0.809017062 -0 0.587785244
vn -0.809017062 -0 0.587785244
vn -0.809017062 -0 0.587785244
vn 0.309017062 -0 0.95105648
vn 0.309017062 0 0.95105648
vn 0.309017062 0 0.95105648
vn 0.309017062 -0 0.95105648
vn 1 -0 -5.78538746e-08
vn 1 -0 -5.78538746e-08
vn 1 -0 -5.78538746e-08
vn 1 -0 -5.78538746e-08
vn 0.309016824 -0 -0.9510566
vn 0.309016824 -0 -0.9510566
vn 0.309016824 -0 -0.9510566
vn 0.309016824 -0 -0.9510566
vn -0.809017062 0 -0.587785244
vn -0.809017062 -0 -0.587785244
vn -0.809017062 -0 -0.587785244
vn -0.809017062 0 -0.587785244
vn -0.809017062 -0 -0.587785244
vn -0.809017062 0 -0.587785244
vn -0.809017062 0 -0.587785244
vn -0.809017062 -0 -0.587785244
vn 0.309016824 -0 -0.9510566
vn 0.309016824 -0 -0.9510566
vn 0.309016824 -0 -0.9510566
vn 0.309016824 -0 -0.9510566
vn 1 -0 -5.78538675e-08
vn 1 -0 -5.78538675e-08
vn 1 -0 -5.78538675e-08
vn 1 -0 -5.78538675e-08
vn 0.309017062 0 0.95105654
vn 0.309017062 -0 0.95105654
vn 0.309017062 -0 0.95105654
vn 0.309017062 0 0.95105654
vn -0.809017003 -0 0.587785244
vn -0.809017003 -0 0.587785244
vn -0.809017003 -0 0.587785244
vn -0.809017003 -0 0.587785244
g 
usemtl /obj/geo1/uvquickshade1/shop_definition/texture_material
f 2/1/1 6/2/2 7/3/3 1/4/4
f 3/5/5 10/6/6 6/2/7 2/1/8
f 4/7/9 9/8/10 10/6/11 3/5/12
f 5/9/13 8/10/14 9/8/15 4/7/16
f 1/4/17 7/3/18 8/10/19 5/9/20
f 12/11/21 16/12/22 17/13/23 11/14/24
f 13/15/25 20/16/26 16/12/27 12/11/28
f 14/17/29 19/18/30 20/16/31 13/15/32
f 15/19/33 18/20/34 19/18/35 14/17/36
f 11/14/37 17/13/38 18/20/39 15/19/40
f 22/21/41 26/22/42 27/23/43 21/24/44
f 23/25/45 30/26/46 26/22/47 22/21/48
f 24/27/49 29/28/50 30/26/51 23/25/52
f 25/29/53 28/30/54 29/28/55 24/27/56
f 21/24/57 27/23/58 28/30/59 25/29/60
f 32/31/61 36/32/62 37/33/63 31/34/64
f 33/35/65 40/36/66 36/32/67 32/31/68
f 34/37/69 39/38/70 40/36/71 33/35/72
f 35/39/73 38/40/74 39/38/75 34/37/76
f 31/34/77 37/33/78 38/40/79 35/39/80
f 52/55/101 56/56/102 57/57/103 51/58/104
f 53/59/105 60/60/106 56/56/107 52/55/108
f 54/61/109 59/62/110 60/63/111 53/64/112
f 55/65/113 58/66/114 59/67/115 54/68/116
f 51/58/117 57/57/118 58/66/119 55/65/120
f 2/69/121 1/70/122 17/71/123 16/72/124
f 3/73/125 2/74/126 16/75/127 20/76/128
f 4/77/129 3/78/130 20/79/131 19/80/132
f 5/81/133 4/82/134 19/83/135 18/84/136
f 1/70/137 5/85/138 18/86/139 17/71/140
f 8/10/141 7/3/142 27/23/143 26/22/144
f 9/8/145 8/10/146 26/22/147 30/26/148
f 9/8/149 30/26/150 29/28/151 10/6/152
f 6/2/153 10/6/154 29/28/155 28/30/156
f 7/3/157 6/2/158 28/30/159 27/23/160
f 12/11/161 11/14/162 37/33/163 36/32/164
f 12/11/165 36/32/166 40/36/167 13/15/168
f 14/17/169 13/15/170 40/36/171 39/38/172
f 14/17/173 39/38/174 38/40/175 15/19/176
f 15/19/177 38/40/178 37/33/179 11/14/180
f 22/87/191 21/88/192 46/89/193 50/90/194
f 23/91/195 22/92/196 50/93/197 49/94/198
f 24/95/199 23/96/200 49/51/201 48/50/202
f 25/97/203 24/98/204 48/99/205 47/100/206
f 21/88/207 25/101/208 47/102/209 46/89/210
f 32/103/211 31/104/212 51/105/213 55/106/214
f 33/107/215 32/108/216 55/109/217 54/110/218
f 34/111/219 33/112/220 54/61/221 53/64/222
f 35/113/223 34/114/224 53/115/225 52/116/226
f 31/104/227 35/117/228 52/118/229 51/105/230
g extrudeBack extrudeFront
usemtl /obj/geo1/uvquickshade1/shop_definition/texture_material
f 42/41/81 46/42/82 47/43/83 41/44/84
f 43/45/85 50/46/86 46/42/87 42/41/88
f 44/47/89 49/48/90 50/46/91 43/45/92
f 45/49/93 48/50/94 49/51/95 44/52/96
f 41/44/97 47/43/98 48/53/99 45/54/100
f 44/47/181 43/45/182 42/41/183 41/44/184 45/54/185
g extrudeFront
usemtl /obj/geo1/uvquickshade1/shop_definition/texture_material
f 57/57/186 56/56/187 60/60/188 59/67/189 58/66/190
