# File exported by Houdini 17.5.425 (www.sidefx.com)
# 36 points
# 138 vertices
# 35 primitives
# Bounds: [-0.50000006, 0, -0.866025388] to [1, 0.200000003, 0.866025448]
g 
v 1 0.0149999997 0
v -0.499999911 0.0149999997 0.866025448
v -0.50000006 0.0149999997 -0.866025388
v -0.484999925 0 0.840044677
v 0.970000029 0 8.94069763e-10
v -0.485000044 0 -0.840044618
v 0.970000029 0.200000003 8.94069763e-10
v -0.484999925 0.200000003 0.840044677
v -0.485000044 0.200000003 -0.840044618
v -0.499999911 0.185000002 0.866025448
v 1 0.185000002 0
v -0.50000006 0.185000002 -0.866025388
v 0.800000012 0.0149999987 1.19209291e-08
v -0.400000036 0.0149999987 -0.692820311
v -0.399999917 0.0149999987 0.69282037
v -0.415000051 0 -0.718801081
v 0.829999983 0 1.01327897e-08
v -0.414999902 0 0.718801141
v 0.800000012 0.185000002 1.19209291e-08
v -0.399999917 0.185000002 0.69282037
v -0.400000036 0.185000002 -0.692820311
v -0.414999902 0.200000003 0.718801141
v 0.829999983 0.200000003 1.01327897e-08
v -0.415000051 0.200000003 -0.718801081
v 0.800000012 0.0350000039 1.19209291e-08
v -0.399999917 0.0350000039 0.69282037
v -0.400000036 0.0350000039 -0.692820311
v -0.384999931 0.0500000007 0.6668396
v 0.770000041 0.0500000007 1.37090685e-08
v -0.38500002 0.0500000007 -0.66683954
v 0.800000012 0.165000007 1.19209291e-08
v -0.400000036 0.165000007 -0.692820311
v -0.399999917 0.165000007 0.69282037
v -0.38500002 0.150000006 -0.66683954
v 0.770000041 0.150000006 1.37090685e-08
v -0.384999931 0.150000006 0.6668396
vt 0.248058587 0.529420674 0
vt 0.0031802603 0.670801282 0
vt 0.00318024121 0.388040125 0
vt 0.581391931 0.529420674 0
vt 0.336513579 0.670801282 0
vt 0.336513579 0.388040125 0
vt 0.333333343 0.367222279 0
vt 0.336513579 0.361713916 0
vt 0.644996643 0.183611125 0
vt 0.651357114 0.183611125 0
vt 0.333333343 0 0
vt 0.336513579 0.00550833577 0
vt 0.00318026659 0.00550833577 0
vt 3.15928261e-08 0 0
vt 0.318023801 0.18361114 0
vt 0.31166333 0.18361114 0
vt 0.00318024121 0.361713916 0
vt 0 0.367222279 0
vt 0.354534894 0.0367222242 0
vt 0.351354659 0.0312138889 0
vt 0.615314424 0.183611125 0
vt 0.608953953 0.183611125 0
vt 0.354534954 0.330500036 0
vt 0.351354688 0.33600837 0
vt 0.0212016162 0.0367222242 0
vt 0.0180213824 0.0312138889 0
vt 0.281981111 0.18361114 0
vt 0.275620639 0.18361114 0
vt 0.0212015919 0.330500036 0
vt 0.0180213507 0.33600837 0
vt 2.52742609e-08 0.676309586 0
vt 0.254419059 0.529420674 0
vt 0.293777794 0.747211695 0
vt 0.28826946 0.750391901 0
vt 0.00550833577 0.750391901 0
vt 0 0.747211695 0
vt 0 0.382531792 0
vt 0.333333343 0.676309586 0
vt 0.587752402 0.529420674 0
vt 0.666666687 0.0545324646 0
vt 0.67217499 0.051352229 0
vt 0.954936087 0.051352229 0
vt 0.96044445 0.0545324646 0
vt 0.333333373 0.382531792 0
vt 0 0.691619158 0
vt 0.318023771 0.691619158 0
vt 0.318023771 0.727661788 0
vt 0 0.727661788 0
vt 0 0.769818544 0
vt 0.367222279 0.769818544 0
vt 0.367222279 0.805861235 0
vt 0 0.805861235 0
vt 0.666666687 0 0
vt 0.984690487 0 0
vt 0.984690487 0.0360426977 0
vt 0.666666687 0.0360426977 0
vt 0.333333343 0.691619158 0
vt 0.587752402 0.691619158 0
vt 0.587752402 0.695859432 0
vt 0.333333343 0.695859432 0
vt 0 0.742971361 0
vt 0.293777794 0.742971361 0
vt 0.333333343 0.711169004 0
vt 0.587752342 0.711169004 0
vt 0.587752342 0.715409338 0
vt 0.333333343 0.715409338 0
vt 0.587752342 0.754508972 0
vt 0.333333343 0.754508972 0
vt 0.333333343 0.750268638 0
vt 0.587752342 0.750268638 0
vt 0.96044445 0.0587727837 0
vt 0.666666687 0.0587727837 0
vt 0.587752402 0.734959126 0
vt 0.333333343 0.734959126 0
vt 0.333333343 0.730718791 0
vt 0.587752402 0.730718791 0
vn 0 -1 0
vn 0 -1 0
vn 0 -1 0
vn 0 1 0
vn 0 1 0
vn 0 1 0
vn 0.353553295 -0.707107067 0.61237216
vn 0.353553236 -0.707107067 0.61237216
vn 0.353553593 -0.707106471 0.612372756
vn 0.353553593 -0.707106531 0.612372696
vn -0.707106471 -0.707107127 6.08337061e-08
vn -0.707106471 -0.707107127 5.01721296e-08
vn -0.707107067 -0.707106531 5.01721793e-08
vn -0.707107067 -0.707106471 6.08337558e-08
vn 0.353553534 -0.707106531 -0.612372696
vn 0.353553504 -0.707106471 -0.612372696
vn 0.353553385 -0.707106769 -0.612372458
vn 0.353553385 -0.707106769 -0.612372398
vn 0.353553265 0.707107067 0.61237222
vn 0.353553295 0.707107067 0.61237222
vn 0.353553623 0.707106531 0.612372756
vn 0.353553534 0.707106411 0.612372696
vn -0.707106471 0.707107127 5.01721367e-08
vn -0.707106471 0.707107067 6.08337061e-08
vn -0.707107067 0.707106471 6.08337629e-08
vn -0.707107067 0.707106531 5.01721793e-08
vn 0.353553534 0.707106471 -0.612372696
vn 0.353553563 0.707106531 -0.612372696
vn 0.353553414 0.707106769 -0.612372458
vn 0.353553385 0.707106769 -0.612372458
vn -0.353553385 -0.707106829 0.612372398
vn -0.353553385 -0.707106769 0.612372339
vn -0.353553534 -0.707106531 0.612372637
vn -0.353553504 -0.707106531 0.612372696
vn 0.707107008 -0.707106531 -6.08337487e-08
vn 0.707107008 -0.707106531 -7.32936769e-08
vn 0.707106471 -0.707107127 -7.32936201e-08
vn 0.707106471 -0.707107127 -6.08337132e-08
vn -0.353553534 -0.707106471 -0.612372696
vn -0.353553563 -0.707106531 -0.612372637
vn -0.353553265 -0.707107008 -0.61237222
vn -0.353553265 -0.707107067 -0.61237216
vn -0.353553265 0.707107067 -0.61237216
vn -0.353553295 0.707107008 -0.61237222
vn -0.353553563 0.707106471 -0.612372696
vn -0.353553593 0.707106292 -0.612372696
vn 0.707106531 0.707107067 -6.08337132e-08
vn 0.707106471 0.707107067 -7.32936201e-08
vn 0.707107067 0.707106531 -7.3293684e-08
vn 0.707107067 0.707106531 -6.08337558e-08
vn -0.353553534 0.707106411 0.612372696
vn -0.353553534 0.707106471 0.612372756
vn -0.353553444 0.707106709 0.612372518
vn -0.353553385 0.707106769 0.612372398
vn -0.353553265 -0.707107127 -0.6123721
vn -0.353553206 -0.707107067 -0.612372041
vn -0.353553534 -0.707106531 -0.612372637
vn -0.353553563 -0.70710659 -0.612372696
vn 0.707106411 -0.707107127 -6.08337061e-08
vn 0.707106352 -0.707107186 -4.74028816e-08
vn 0.707107008 -0.707106471 -4.74029207e-08
vn 0.707107008 -0.70710659 -6.08337558e-08
vn -0.353553504 -0.707106531 0.612372637
vn -0.353553474 -0.707106531 0.612372637
vn -0.353553325 -0.707106888 0.612372398
vn -0.353553385 -0.707106948 0.612372398
vn -0.353553385 0.707106769 0.612372398
vn -0.353553385 0.707106769 0.612372458
vn -0.353553563 0.707106411 0.612372816
vn -0.353553563 0.707106471 0.612372756
vn 0.707107067 0.707106471 -6.08337558e-08
vn 0.707107127 0.707106531 -4.74029314e-08
vn 0.707106471 0.707107127 -4.74028887e-08
vn 0.707106531 0.707107067 -6.08337132e-08
vn -0.353553623 0.707106411 -0.612372756
vn -0.353553593 0.707106411 -0.612372756
vn -0.353553265 0.707107067 -0.61237222
vn -0.353553295 0.707107067 -0.61237216
vn 0.50000006 -0 0.866025388
vn 0.50000006 0 0.866025388
vn 0.50000006 0 0.866025388
vn 0.50000006 -0 0.866025388
vn -1 -0 8.60318963e-08
vn -1 -0 8.60318963e-08
vn -1 -0 8.60318963e-08
vn -1 -0 8.60318963e-08
vn 0.50000006 -0 -0.866025388
vn 0.50000006 -0 -0.866025388
vn 0.50000006 -0 -0.866025388
vn 0.50000006 -0 -0.866025388
vn -0 -1 0
vn -0 -1 -0
vn 0 -1 -0
vn -0 -1 -0
vn -0 -1 0
vn -0 -1 -0
vn -0 -1 -0
vn 0 -1 0
vn 0 -1 0
vn -0 -1 -0
vn 0 -1 -0
vn -0 -1 -0
vn 0 1 0
vn -0 1 -0
vn 0 1 -0
vn -0 1 -0
vn -0 1 0
vn 0 1 0
vn -0 1 -0
vn -0 1 -0
vn -0 1 0
vn -0 1 -0
vn 0 1 -0
vn -0 1 -0
vn -0.49999997 -0 0.866025448
vn -0.49999997 -0 0.866025448
vn -0.49999997 -0 0.866025448
vn -0.49999997 -0 0.866025448
vn 1 -0 -8.60318963e-08
vn 1 -0 -8.60318963e-08
vn 1 -0 -8.60318963e-08
vn 1 -0 -8.60318963e-08
vn -0.50000006 0 -0.866025388
vn -0.50000006 -0 -0.866025388
vn -0.50000006 -0 -0.866025388
vn -0.50000006 0 -0.866025388
vn -0.500000119 -0 -0.866025388
vn -0.500000119 0 -0.866025388
vn -0.500000119 0 -0.866025388
vn -0.500000119 -0 -0.866025388
vn 1 -0 -8.60318963e-08
vn 1 -0 -8.60318963e-08
vn 1 -0 -8.60318963e-08
vn 1 -0 -8.60318963e-08
vn -0.5 -0 0.866025448
vn -0.5 -0 0.866025448
vn -0.5 -0 0.866025448
vn -0.5 -0 0.866025448
g extrudeBack extrudeFront
usemtl /obj/geo1/uvquickshade1/shop_definition/texture_material
f 29/1/1 28/2/2 30/3/3
g extrudeFront
usemtl /obj/geo1/uvquickshade1/shop_definition/texture_material
f 35/4/4 34/5/5 36/6/6
g 
usemtl /obj/geo1/uvquickshade1/shop_definition/texture_material
f 2/7/7 4/8/8 5/9/9 1/10/10
f 3/11/11 6/12/12 4/8/13 2/7/14
f 1/10/15 5/9/16 6/12/17 3/11/18
f 8/13/19 10/14/20 11/15/21 7/16/22
f 9/17/23 12/18/24 10/14/25 8/13/26
f 7/16/27 11/15/28 12/18/29 9/17/30
f 14/19/31 16/20/32 17/21/33 13/22/34
f 15/23/35 18/24/36 16/20/37 14/19/38
f 13/22/39 17/21/40 18/24/41 15/23/42
f 20/25/43 22/26/44 23/27/45 19/28/46
f 21/29/47 24/30/48 22/26/49 20/25/50
f 19/28/51 23/27/52 24/30/53 21/29/54
f 26/31/55 28/2/56 29/1/57 25/32/58
f 27/33/59 30/34/60 28/35/61 26/36/62
f 25/32/63 29/1/64 30/3/65 27/37/66
f 32/38/67 34/5/68 35/4/69 31/39/70
f 33/40/71 36/41/72 34/42/73 32/43/74
f 31/39/75 35/4/76 36/6/77 33/44/78
f 2/45/79 1/46/80 11/47/81 10/48/82
f 3/49/83 2/50/84 10/51/85 12/52/86
f 1/53/87 3/54/88 12/55/89 11/56/90
f 6/12/91 5/9/92 17/21/93 16/20/94
f 6/12/95 16/20/96 18/24/97 4/8/98
f 4/8/99 18/24/100 17/21/101 5/9/102
f 8/13/103 7/16/104 23/27/105 22/26/106
f 9/17/107 8/13/108 22/26/109 24/30/110
f 9/17/111 24/30/112 23/27/113 7/16/114
f 14/57/115 13/58/116 25/59/117 27/60/118
f 15/61/119 14/62/120 27/33/121 26/36/122
f 13/63/123 15/64/124 26/65/125 25/66/126
f 20/67/127 19/68/128 31/69/129 33/70/130
f 21/71/131 20/72/132 33/40/133 32/43/134
f 19/73/135 21/74/136 32/75/137 31/76/138
