# This file uses centimeters as units for non-parametric coordinates.

mtllib WallPlug.mtl
v -0.500000 0.000000 1.000000
v 0.500000 0.000000 1.000000
v -0.500000 3.000000 1.000000
v 0.500000 3.000000 1.000000
v -0.500000 3.000000 -1.000000
v 0.500000 3.000000 -1.000000
v -0.500000 0.000000 -1.000000
v 0.500000 0.000000 -1.000000
vt 0.375000 0.000000
vt 0.625000 0.000000
vt 0.375000 0.250000
vt 0.625000 0.250000
vt 0.875000 0.000000
vt 0.875000 0.250000
vt 0.125000 0.000000
vt 0.125000 0.250000
vn 1.000000 0.000000 0.000000
vn 1.000000 0.000000 0.000000
vn 1.000000 0.000000 0.000000
vn 1.000000 0.000000 0.000000
vn -1.000000 0.000000 0.000000
vn -1.000000 0.000000 0.000000
vn -1.000000 0.000000 0.000000
vn -1.000000 0.000000 0.000000
s off
usemtl initialShadingGroup
f 2/2/1 8/5/2 6/6/3 4/4/4
f 7/7/5 1/1/6 3/3/7 5/8/8
