# This file uses centimeters as units for non-parametric coordinates.

mtllib ModWallDiagonalContinuous.mtl
g default
v -0.393934 2.000000 -0.606066
v -0.535355 2.000000 -0.464645
v 0.606066 2.000000 0.393934
v 0.464645 2.000000 0.535356
v 0.464645 0.800000 0.535356
v 0.606066 0.800000 0.393934
v -0.393934 0.800000 -0.606066
v -0.535355 0.800000 -0.464645
v 0.606066 0.000000 0.393934
v -0.393934 0.000000 -0.606066
v 0.393934 0.000000 0.606066
v -0.606066 0.000000 -0.393934
v 0.393934 0.800000 0.606066
v -0.606066 0.800000 -0.393934
v 0.464645 1.000000 0.535356
v -0.535355 1.000000 -0.464645
v 0.606066 1.000000 0.393934
v -0.393934 1.000000 -0.606066
vt -0.001660 0.937484
vt -0.001659 0.925012
vt 0.064143 0.925017
vt 0.064144 0.937478
vt 0.060847 0.987516
vt 0.126650 0.987512
vt 0.126652 0.999972
vt 0.060849 0.999988
vt 0.060847 0.937498
vt 0.126649 0.937500
vt 0.126647 0.999995
vt 0.060843 0.999990
vt -0.001650 0.943752
vt 0.064150 0.943758
vt 0.064151 0.999959
vt -0.001648 0.999941
vt -0.001651 0.943757
vt 0.064152 0.943757
vt 0.064152 0.993764
vt -0.001652 0.993760
vt 0.064152 0.999959
vt -0.001652 0.999969
vt 0.060841 0.937503
vt 0.126643 0.937495
vt 0.126652 0.999987
vt 0.060848 0.999997
vt 0.060851 0.987533
vt 0.126650 0.987530
vt 0.126649 0.999986
vt 0.060848 0.999975
vn 0.000000 1.000000 0.000000
vn 0.000000 1.000000 0.000000
vn 0.000000 1.000000 0.000000
vn 0.000000 1.000000 0.000000
vn -0.707107 0.000000 0.707107
vn -0.707107 0.000000 0.707107
vn -0.707107 0.000000 0.707107
vn -0.707107 0.000000 0.707107
vn 0.707107 0.000000 -0.707107
vn 0.707107 0.000000 -0.707107
vn 0.707107 0.000000 -0.707107
vn 0.707107 0.000000 -0.707107
vn 0.707107 0.000000 -0.707107
vn 0.707107 0.000000 -0.707107
vn 0.707107 0.000000 -0.707107
vn 0.707107 0.000000 -0.707107
vn -0.707107 0.000000 0.707107
vn -0.707107 0.000000 0.707107
vn -0.707107 0.000000 0.707107
vn -0.707107 0.000000 0.707107
vn 0.000000 1.000000 0.000000
vn 0.000000 1.000000 0.000000
vn 0.000000 1.000000 0.000000
vn 0.000000 1.000000 0.000000
vn -0.707107 0.000000 0.707107
vn -0.707107 0.000000 0.707107
vn -0.707107 0.000000 0.707107
vn -0.707107 0.000000 0.707107
vn 0.707107 0.000000 -0.707107
vn 0.707107 0.000000 -0.707107
vn 0.707107 0.000000 -0.707107
vn 0.707107 0.000000 -0.707107
s off
g ModWall11
usemtl lambert2SG
f 1/1/1 2/2/2 4/3/3 3/4/4
f 8/5/5 5/6/6 15/7/7 16/8/8
f 17/9/9 18/10/10 1/11/11 3/12/12
f 9/13/13 10/14/14 7/15/15 6/16/16
f 12/17/17 11/18/18 13/19/19 14/20/20
f 5/21/21 8/22/22 14/20/23 13/19/24
f 16/23/25 15/24/26 4/25/27 2/26/28
f 6/27/29 7/28/30 18/29/31 17/30/32
