# File exported by Houdini 17.5.425 (www.sidefx.com)
# 49 points
# 144 vertices
# 36 primitives
# Bounds: [-1.01305258, 0, -0.100862861] to [0.100862861, 2, 1.01305258]
g 
v 0.100862861 0 1
v 0.0633518696 0 0.715075731
v -0.0466247797 0 0.44956857
v -0.221572399 0 0.221572399
v -0.44956857 0 0.0466247201
v -0.715075672 0 -0.0633518696
v -1 0 -0.100862861
v 0.100862861 0.800000012 1
v -0.100862861 0.800000012 1
v -0.131500244 0.800000012 0.767286181
v 0.0633518696 0.800000012 0.715075731
v -0.221324444 0.800000012 0.55043143
v -0.0466247797 0.800000012 0.44956857
v -0.364214063 0.800000012 0.364214063
v -0.221572399 0.800000012 0.221572399
v -0.55043149 0.800000012 0.221324384
v -0.44956857 0.800000012 0.0466247201
v -0.767286181 0.800000012 0.131500244
v -0.715075672 0.800000012 -0.0633518696
v -1 0.800000012 0.100862861
v -1 0.800000012 -0.100862861
v 0.100862861 2 1
v -0.100862861 2 1
v -0.131500244 2 0.767286181
v 0.0633518696 2 0.715075731
v -0.221324444 2 0.55043143
v -0.0466247797 2 0.44956857
v -0.364214063 2 0.364214063
v -0.221572399 2 0.221572399
v -0.55043149 2 0.221324384
v -0.44956857 2 0.0466247201
v -0.767286181 2 0.131500244
v -0.715075672 2 -0.0633518696
v -1 2 0.100862861
v -1 2 -0.100862861
v -0.200007349 0 1.01305258
v -0.228926316 0 0.793391407
v -0.228926316 0.800000012 0.793391407
v -0.200007349 0.800000012 1.01305258
v -0.308674276 0 0.600862861
v -0.308674276 0.800000012 0.600862861
v -0.435534894 0 0.435534894
v -0.435534894 0.800000012 0.435534894
v -0.60086292 0 0.308674216
v -0.60086292 0.800000012 0.308674216
v -0.793391407 0 0.228926316
v -0.793391407 0.800000012 0.228926316
v -1.01305258 0 0.200007349
v -1.01305258 0.800000012 0.200007349
vn 0.13052617 -0 -0.991444886
vn 0.13052617 -0 -0.991444886
vn 0.258818924 0 -0.965925813
vn 0.258818954 -0 -0.965925813
vn 0.258818954 -0 -0.965925813
vn 0.258818924 0 -0.965925813
vn 0.5 0 -0.866025388
vn 0.5 -0 -0.866025388
vn 0.5 -0 -0.866025388
vn 0.5 0 -0.866025388
vn 0.707106829 0 -0.707106709
vn 0.707106829 -0 -0.707106709
vn 0.707106829 -0 -0.707106709
vn 0.707106829 0 -0.707106709
vn 0.866025388 0 -0.49999997
vn 0.866025388 -0 -0.49999997
vn 0.866025388 -0 -0.49999997
vn 0.866025388 0 -0.49999997
vn 0.965925813 0 -0.258819014
vn 0.965925813 -0 -0.258819014
vn 0.965925813 -0 -0.258819014
vn 0.965925813 0 -0.258819014
vn 0.991444886 -0 -0.1305262
vn 0.991444886 -0 -0.1305262
vn -0 1 -0
vn -0 1 -0
vn 0 1 0
vn 0 1 -0
vn -0 1 -0
vn -0 1 -0
vn 0 1 0
vn 0 1 0
vn -0 1 -0
vn -0 1 -0
vn 0 1 0
vn 0 1 0
vn -0 1 -0
vn -0 1 -0
vn 0 0.99999994 0
vn 0 1 0
vn -0 1 -0
vn -0 1 -0
vn 0 1 0
vn 0 0.99999994 0
vn -0 1 -0
vn -0 1 -0
vn -0 1 0
vn 0 1 0
vn -0.991444886 -0 0.130526319
vn -0.991444886 -0 0.130526319
vn -0.965925753 -0 0.258819133
vn -0.965925753 -0 0.258819133
vn -0.965925753 -0 0.258819133
vn -0.965925753 -0 0.258819133
vn -0.866025329 -0 0.50000006
vn -0.866025329 -0 0.50000006
vn -0.866025329 -0 0.50000006
vn -0.866025329 -0 0.50000006
vn -0.707106769 -0 0.707106709
vn -0.707106769 -0 0.707106709
vn -0.707106769 -0 0.707106709
vn -0.707106769 -0 0.707106709
vn -0.49999997 -0 0.866025388
vn -0.49999997 -0 0.866025388
vn -0.49999997 -0 0.866025388
vn -0.49999997 -0 0.866025388
vn -0.258819073 -0 0.965925813
vn -0.258819073 -0 0.965925813
vn -0.258819073 -0 0.965925813
vn -0.258819073 -0 0.965925813
vn -0.130526319 -0 0.991444886
vn -0.130526319 -0 0.991444886
vn 0.13052617 -0 -0.991444886
vn 0.130526155 -0 -0.991444886
vn 0.258818954 -0 -0.965925813
vn 0.258818924 0 -0.965925813
vn 0.258818924 0 -0.965925813
vn 0.258818954 -0 -0.965925813
vn 0.49999997 -0 -0.866025388
vn 0.5 0 -0.866025388
vn 0.5 0 -0.866025388
vn 0.49999997 -0 -0.866025388
vn 0.707106829 -0 -0.707106709
vn 0.707106829 0 -0.707106709
vn 0.707106829 0 -0.707106709
vn 0.707106829 -0 -0.707106709
vn 0.866025388 -0 -0.49999997
vn 0.866025388 0 -0.49999997
vn 0.866025388 0 -0.49999997
vn 0.866025388 -0 -0.49999997
vn 0.965925813 -0 -0.258818984
vn 0.965925813 0 -0.258819014
vn 0.965925813 0 -0.258819014
vn 0.965925813 -0 -0.258818984
vn 0.991444886 -0 -0.130526185
vn 0.991444886 -0 -0.1305262
vn -0.991444886 -0 0.130526304
vn -0.991444886 -0 0.130526304
vn -0.965925813 -0 0.258819133
vn -0.965925813 -0 0.258819133
vn -0.965925813 -0 0.258819133
vn -0.965925813 -0 0.258819133
vn -0.866025388 -0 0.50000006
vn -0.866025388 -0 0.50000006
vn -0.866025388 -0 0.50000006
vn -0.866025388 -0 0.50000006
vn -0.707106769 -0 0.707106709
vn -0.707106769 -0 0.707106709
vn -0.707106769 -0 0.707106709
vn -0.707106769 -0 0.707106709
vn -0.49999997 -0 0.866025388
vn -0.49999997 -0 0.866025388
vn -0.49999997 -0 0.866025388
vn -0.49999997 -0 0.866025388
vn -0.258819044 -0 0.965925813
vn -0.258819044 -0 0.965925813
vn -0.258819044 -0 0.965925813
vn -0.258819044 -0 0.965925813
vn -0.130526304 -0 0.991444886
vn -0.130526304 -0 0.991444886
vn -0 1 -0
vn -0 1 0
vn 0 1 0
vn -0 1 -0
vn -0 1 -0
vn 0 1 0
vn 0 0.99999994 0
vn -0 1 -0
vn -0 1 -0
vn 0 0.99999994 0
vn 0 1 0
vn -0 1 -0
vn -0 1 -0
vn 0 1 0
vn 0 1 0
vn -0 1 -0
vn -0 1 -0
vn 0 1 0
vn 0 1 0
vn -0 1 -0
vn -0 1 -0
vn 0 1 0
vn 0 1 -0
vn -0 1 -0
g extrudeSide
f 7//1 21//2 19//3 6//4
f 6//5 19//6 17//7 5//8
f 5//9 17//10 15//11 4//12
f 4//13 15//14 13//15 3//16
f 3//17 13//18 11//19 2//20
f 2//21 11//22 8//23 1//24
f 36//97 39//98 38//99 37//100
f 37//101 38//102 41//103 40//104
f 40//105 41//106 43//107 42//108
f 42//109 43//110 45//111 44//112
f 44//113 45//114 47//115 46//116
f 46//117 47//118 49//119 48//120
g extrudeFront
f 22//25 25//26 24//27 23//28
f 25//29 27//30 26//31 24//32
f 27//33 29//34 28//35 26//36
f 29//37 31//38 30//39 28//40
f 31//41 33//42 32//43 30//44
f 33//45 35//46 34//47 32//48
g 
f 9//49 23//50 24//51 10//52
f 10//53 24//54 26//55 12//56
f 12//57 26//58 28//59 14//60
f 14//61 28//62 30//63 16//64
f 16//65 30//66 32//67 18//68
f 18//69 32//70 34//71 20//72
f 21//73 35//74 33//75 19//76
f 19//77 33//78 31//79 17//80
f 17//81 31//82 29//83 15//84
f 15//85 29//86 27//87 13//88
f 13//89 27//90 25//91 11//92
f 11//93 25//94 22//95 8//96
f 20//121 49//122 47//123 18//124
f 18//125 47//126 45//127 16//128
f 16//129 45//130 43//131 14//132
f 14//133 43//134 41//135 12//136
f 12//137 41//138 38//139 10//140
f 10//141 38//142 39//143 9//144
