# File exported by Houdini 17.5.425 (www.sidefx.com)
# 49 points
# 144 vertices
# 36 primitives
# Bounds: [-1, 0, -0.200007349] to [0.200007349, 2, 1]
g 
v -0.100862861 0 1
v -0.131500244 0 0.767286181
v -0.221324444 0 0.55043143
v -0.364214063 0 0.364214063
v -0.55043149 0 0.221324384
v -0.767286181 0 0.131500244
v -1 0 0.100862861
v 0.100862861 0.800000012 1
v -0.100862861 0.800000012 1
v -0.131500244 0.800000012 0.767286181
v 0.0633518696 0.800000012 0.715075731
v -0.221324444 0.800000012 0.55043143
v -0.0466247797 0.800000012 0.44956857
v -0.364214063 0.800000012 0.364214063
v -0.221572399 0.800000012 0.221572399
v -0.55043149 0.800000012 0.221324384
v -0.44956857 0.800000012 0.0466247201
v -0.767286181 0.800000012 0.131500244
v -0.715075672 0.800000012 -0.0633518696
v -1 0.800000012 0.100862861
v -1 0.800000012 -0.100862861
v 0.100862861 2 1
v -0.100862861 2 1
v -0.131500244 2 0.767286181
v 0.0633518696 2 0.715075731
v -0.221324444 2 0.55043143
v -0.0466247797 2 0.44956857
v -0.364214063 2 0.364214063
v -0.221572399 2 0.221572399
v -0.55043149 2 0.221324384
v -0.44956857 2 0.0466247201
v -0.767286181 2 0.131500244
v -0.715075672 2 -0.0633518696
v -1 2 0.100862861
v -1 2 -0.100862861
v -0.986947358 0 -0.200007349
v -0.688970447 0 -0.160777956
v -0.688970447 0.800000012 -0.160777956
v -0.986947358 0.800000012 -0.200007349
v -0.39913711 0 -0.040725112
v -0.39913711 0.800000012 -0.040725112
v -0.150251567 0 0.150251567
v -0.150251567 0.800000012 0.150251567
v 0.0407250524 0 0.399137139
v 0.0407250524 0.800000012 0.399137139
v 0.160777941 0 0.688970506
v 0.160777941 0.800000012 0.688970506
v 0.200007349 0 0.986947358
v 0.200007349 0.800000012 0.986947358
vn -0.991444826 -0 0.130526304
vn -0.991444826 -0 0.130526304
vn -0.965925753 0 0.258819133
vn -0.965925753 -0 0.258819133
vn -0.965925753 -0 0.258819133
vn -0.965925753 0 0.258819133
vn -0.866025329 0 0.50000006
vn -0.866025388 -0 0.50000006
vn -0.866025388 -0 0.50000006
vn -0.866025329 0 0.50000006
vn -0.707106769 0 0.707106709
vn -0.707106769 -0 0.707106709
vn -0.707106769 -0 0.707106709
vn -0.707106769 0 0.707106709
vn -0.5 0 0.866025388
vn -0.50000006 -0 0.866025388
vn -0.50000006 -0 0.866025388
vn -0.5 0 0.866025388
vn -0.258819073 0 0.965925813
vn -0.258819103 -0 0.965925813
vn -0.258819103 -0 0.965925813
vn -0.258819073 0 0.965925813
vn -0.130526304 -0 0.991444826
vn -0.130526304 -0 0.991444826
vn -0 1 -0
vn -0 1 -0
vn 0 1 0
vn 0 1 -0
vn -0 1 -0
vn -0 1 -0
vn 0 1 0
vn 0 1 0
vn -0 1 -0
vn -0 1 -0
vn 0 1 0
vn 0 1 0
vn -0 1 -0
vn -0 1 -0
vn 0 0.99999994 0
vn 0 1 0
vn -0 1 -0
vn -0 1 -0
vn 0 1 0
vn 0 0.99999994 0
vn -0 1 -0
vn -0 1 -0
vn -0 1 0
vn 0 1 0
vn -0.991444826 -0 0.130526304
vn -0.991444886 -0 0.130526319
vn -0.965925753 -0 0.258819133
vn -0.965925753 0 0.258819133
vn -0.965925753 0 0.258819133
vn -0.965925753 -0 0.258819133
vn -0.866025329 -0 0.50000006
vn -0.866025329 0 0.50000006
vn -0.866025329 0 0.50000006
vn -0.866025329 -0 0.50000006
vn -0.707106769 -0 0.707106709
vn -0.707106769 0 0.707106709
vn -0.707106769 0 0.707106709
vn -0.707106769 -0 0.707106709
vn -0.49999997 -0 0.866025388
vn -0.5 0 0.866025388
vn -0.5 0 0.866025388
vn -0.49999997 -0 0.866025388
vn -0.258819073 -0 0.965925813
vn -0.258819073 0 0.965925813
vn -0.258819073 0 0.965925813
vn -0.258819073 -0 0.965925813
vn -0.130526319 -0 0.991444886
vn -0.130526304 -0 0.991444826
vn 0.130526155 -0 -0.991444886
vn 0.130526155 -0 -0.991444886
vn 0.258818954 -0 -0.965925813
vn 0.258818954 -0 -0.965925813
vn 0.258818954 -0 -0.965925813
vn 0.258818954 -0 -0.965925813
vn 0.49999997 -0 -0.866025388
vn 0.49999997 -0 -0.866025388
vn 0.49999997 -0 -0.866025388
vn 0.49999997 -0 -0.866025388
vn 0.707106829 -0 -0.707106709
vn 0.707106829 -0 -0.707106709
vn 0.707106829 -0 -0.707106709
vn 0.707106829 -0 -0.707106709
vn 0.866025388 -0 -0.49999997
vn 0.866025388 -0 -0.49999997
vn 0.866025388 -0 -0.49999997
vn 0.866025388 -0 -0.49999997
vn 0.965925813 -0 -0.258818984
vn 0.965925813 -0 -0.258818984
vn 0.965925813 -0 -0.258818984
vn 0.965925813 -0 -0.258818984
vn 0.991444886 -0 -0.130526185
vn 0.991444886 -0 -0.130526185
vn 0.130526155 -0 -0.991444886
vn 0.130526155 -0 -0.991444886
vn 0.258818924 -0 -0.965925813
vn 0.258818924 -0 -0.965925813
vn 0.258818924 -0 -0.965925813
vn 0.258818924 -0 -0.965925813
vn 0.50000006 -0 -0.866025388
vn 0.50000006 -0 -0.866025388
vn 0.50000006 -0 -0.866025388
vn 0.50000006 -0 -0.866025388
vn 0.707106829 -0 -0.707106709
vn 0.707106829 -0 -0.707106709
vn 0.707106829 -0 -0.707106709
vn 0.707106829 -0 -0.707106709
vn 0.866025388 -0 -0.49999997
vn 0.866025388 -0 -0.49999997
vn 0.866025388 -0 -0.49999997
vn 0.866025388 -0 -0.49999997
vn 0.965925813 -0 -0.258819044
vn 0.965925813 -0 -0.258819044
vn 0.965925813 -0 -0.258819044
vn 0.965925813 -0 -0.258819044
vn 0.991444886 -0 -0.13052623
vn 0.991444886 -0 -0.13052623
vn 0 1 -0
vn -0 0.99999994 -0
vn -0 1 -0
vn 0 1 0
vn 0 1 0
vn -0 1 -0
vn -0 1 -0
vn 0 0.99999994 0
vn 0 0.99999994 0
vn -0 1 -0
vn -0 1 -0
vn 0 1 0
vn 0 1 0
vn -0 1 -0
vn -0 1 -0
vn 0 1 0
vn 0 1 0
vn -0 1 -0
vn -0 1 -0
vn 0 1 0
vn 0 1 0
vn -0 1 -0
vn -0 0.99999994 -0
vn -0 0.99999994 0
g extrudeSide
f 1//1 9//2 10//3 2//4
f 2//5 10//6 12//7 3//8
f 3//9 12//10 14//11 4//12
f 4//13 14//14 16//15 5//16
f 5//17 16//18 18//19 6//20
f 6//21 18//22 20//23 7//24
f 36//97 39//98 38//99 37//100
f 37//101 38//102 41//103 40//104
f 40//105 41//106 43//107 42//108
f 42//109 43//110 45//111 44//112
f 44//113 45//114 47//115 46//116
f 46//117 47//118 49//119 48//120
g extrudeFront
f 22//25 25//26 24//27 23//28
f 25//29 27//30 26//31 24//32
f 27//33 29//34 28//35 26//36
f 29//37 31//38 30//39 28//40
f 31//41 33//42 32//43 30//44
f 33//45 35//46 34//47 32//48
g 
f 9//49 23//50 24//51 10//52
f 10//53 24//54 26//55 12//56
f 12//57 26//58 28//59 14//60
f 14//61 28//62 30//63 16//64
f 16//65 30//66 32//67 18//68
f 18//69 32//70 34//71 20//72
f 21//73 35//74 33//75 19//76
f 19//77 33//78 31//79 17//80
f 17//81 31//82 29//83 15//84
f 15//85 29//86 27//87 13//88
f 13//89 27//90 25//91 11//92
f 11//93 25//94 22//95 8//96
f 8//121 49//122 47//123 11//124
f 11//125 47//126 45//127 13//128
f 13//129 45//130 43//131 15//132
f 15//133 43//134 41//135 17//136
f 17//137 41//138 38//139 19//140
f 19//141 38//142 39//143 21//144
