# This file uses centimeters as units for non-parametric coordinates.

mtllib ModWallCorner1.mtl
g default
v -0.200000 0.000000 0.194280
v -1.000000 0.000000 0.200000
v -1.000000 0.000000 -0.200000
v 0.200000 0.000000 -0.200000
v -0.200000 0.000000 1.000000
v 0.200000 0.000000 1.000000
v -1.000000 0.800000 -0.200000
v -1.000000 0.800000 0.200000
v -0.200000 0.800000 0.194280
v 0.200000 0.800000 -0.200000
v -0.200000 0.800000 1.000000
v 0.200000 0.800000 1.000000
v 0.100000 0.800000 1.000000
v -0.100000 0.800000 1.000000
v -1.000000 0.800000 -0.099047
v 0.100000 0.800000 -0.100953
v -1.000000 0.800000 0.101907
v -0.100000 0.800000 0.098093
v -0.100000 2.000000 0.098093
v 0.100000 2.000000 -0.100953
v -1.000000 2.000000 -0.099047
v -1.000000 2.000000 0.101907
v -0.100000 2.000000 1.000000
v 0.100000 2.000000 1.000000
v -1.000000 1.000000 -0.099047
v 0.100000 1.000000 -0.100953
v 0.100000 1.000000 1.000000
v -1.000000 1.000000 0.101907
v -0.100000 1.000000 0.098093
v -0.100000 1.000000 1.000000
vt 0.006000 0.943625
vt 0.056001 0.943757
vt 0.055869 0.993757
vt 0.005867 0.993625
vt 0.000006 0.943750
vt 0.062347 0.943718
vt 0.062368 0.993718
vt 0.000027 0.993750
vt 0.062853 0.987498
vt 0.124806 0.987499
vt 0.124670 1.000002
vt 0.062718 0.999996
vt 0.062630 0.987509
vt 0.118881 0.987516
vt 0.118750 1.000008
vt 0.062500 1.000000
vt 0.000000 1.000018
vt 0.005895 0.999756
vt 0.006010 0.993767
vt 0.056011 1.000007
vt 0.056010 0.993757
vt 0.000000 1.000000
vt 0.000001 0.993750
vt 0.006279 0.999938
vt 0.062371 1.000028
vt 0.009594 0.912418
vt 0.062219 0.900050
vt 0.052672 0.899993
vt 0.052690 0.912553
vt 0.009777 0.912565
vt 0.009775 0.900065
vt 0.006001 0.943767
vt 0.056001 0.943757
vt 0.000006 0.943750
vt 0.061989 0.943757
vt 0.061984 0.993757
vt 0.062749 0.987511
vt 0.118761 0.987514
vt 0.118641 0.999999
vt 0.062629 1.000009
vt 0.062988 0.987500
vt 0.124671 0.987497
vt 0.124537 1.000000
vt 0.062853 0.999998
vt 0.052690 0.912553
vt 0.000000 0.900000
vt 0.055793 1.000007
vt 0.062145 0.999741
vt 0.124806 0.999999
vt 0.124539 0.937500
vt 0.062722 0.937496
vt 0.062855 0.937498
vt 0.062509 0.937500
vt 0.118880 1.000016
vt 0.062749 1.000011
vt 0.118761 1.000014
vt 0.118759 0.937508
vt 0.062618 0.937509
vt 0.118630 0.937499
vt 0.062629 1.000009
vt 0.062853 0.999998
vt 0.124672 0.999997
vt 0.062988 1.000000
vt 0.124674 0.937502
vn 0.000000 1.000000 -0.000000
vn 0.000000 1.000000 -0.000001
vn 0.000000 1.000000 -0.000001
vn 0.000000 1.000000 -0.000000
vn 0.007150 0.000000 0.999974
vn 0.007150 0.000000 0.999974
vn 0.007150 0.000000 0.999974
vn 0.007150 0.000000 0.999974
vn 0.000000 0.000000 -1.000000
vn 0.000000 0.000000 -1.000000
vn 0.000000 0.000000 -1.000000
vn 0.000000 0.000000 -1.000000
vn -1.000000 0.000000 0.000000
vn -1.000000 0.000000 0.000000
vn -1.000000 0.000000 0.000000
vn -1.000000 0.000000 0.000000
vn 1.000000 0.000000 -0.000000
vn 1.000000 0.000000 -0.000000
vn 1.000000 0.000000 -0.000000
vn 1.000000 0.000000 -0.000000
vn 0.000000 1.000000 -0.000000
vn 0.000000 1.000000 -0.000000
vn 0.000000 1.000000 0.000000
vn 0.000000 1.000000 0.000000
vn 0.000000 1.000000 -0.000000
vn 0.000000 1.000000 -0.000000
vn 0.000000 1.000000 0.000000
vn 0.000000 1.000000 0.000000
vn 0.000000 1.000000 0.000000
vn 0.000000 1.000000 0.000000
vn 0.000000 1.000000 0.000000
vn 0.000000 1.000000 0.000000
vn 0.000000 1.000000 -0.000000
vn 0.000000 1.000000 -0.000000
vn -0.001733 0.000000 -0.999999
vn -0.001733 0.000000 -0.999999
vn -0.001733 0.000000 -0.999999
vn -0.001733 0.000000 -0.999999
vn 0.004237 0.000000 0.999991
vn 0.004237 0.000000 0.999991
vn 0.004237 0.000000 0.999991
vn 0.004237 0.000000 0.999991
vn -1.000000 0.000000 -0.000000
vn -1.000000 0.000000 -0.000000
vn -1.000000 0.000000 -0.000000
vn -1.000000 0.000000 -0.000000
vn 1.000000 0.000000 -0.000000
vn 1.000000 0.000000 -0.000000
vn 1.000000 0.000000 -0.000000
vn 1.000000 0.000000 -0.000000
vn -0.001733 0.000000 -0.999999
vn -0.001733 0.000000 -0.999999
vn 1.000000 0.000000 -0.000000
vn 1.000000 0.000000 -0.000000
vn 0.004237 0.000000 0.999991
vn 0.004237 0.000000 0.999991
vn -1.000000 0.000000 -0.000000
vn -1.000000 0.000000 -0.000000
s 1
g ModWallCorner1
usemtl lambert2SG
f 18/48/1 17/18/2 8/4/3 9/3/4
s off
f 2/1/5 1/2/6 9/3/7 8/4/8
f 4/5/9 3/6/10 7/7/11 10/8/12
f 1/32/13 5/33/14 11/21/15 9/19/16
f 12/23/17 6/34/18 4/35/19 10/36/20
s 2
f 13/22/21 12/23/22 10/36/23 16/47/24
s 3
f 19/26/25 20/46/26 21/28/27 22/29/28
s 2
f 10/8/23 7/7/29 15/25/30 16/24/24
s 1
f 14/20/31 18/17/1 9/19/4 11/21/32
s 3
f 19/45/25 23/30/33 24/31/34 20/27/26
s 4
f 16/9/35 15/10/36 25/49/37 26/61/38
s 5
f 28/53/39 29/57/40 19/15/41 22/16/42
s 6
f 29/58/43 30/59/44 23/39/45 19/40/46
s 7
f 13/41/47 16/42/48 26/62/49 27/63/50
s 4
f 26/51/38 25/64/37 21/11/51 20/12/52
s 7
f 27/52/50 26/50/49 20/43/53 24/44/54
s 5
f 17/13/55 18/14/56 29/54/40 28/60/39
s 6
f 18/37/57 14/38/58 30/56/44 29/55/43
