# This file uses centimeters as units for non-parametric coordinates.

mtllib ModWallThin.mtl
g default
v -0.100000 2.000000 0.500000
v 0.100000 2.000000 0.500000
v -0.100000 2.000000 -0.500000
v 0.100000 2.000000 -0.500000
v 0.100000 0.800000 -0.500000
v -0.100000 0.800000 -0.500000
v -0.100000 0.800000 0.500000
v 0.100000 0.800000 0.500000
v -0.100000 0.000000 -0.500000
v -0.100000 0.000000 0.500000
v 0.100000 0.000000 -0.500000
v 0.100000 0.000000 0.500000
v 0.100000 1.000000 -0.500000
v 0.100000 1.000000 0.500000
v -0.100000 1.000000 -0.500000
v -0.100000 1.000000 0.500000
vt -0.000008 0.937500
vt -0.000008 0.925000
vt 0.062492 0.925000
vt 0.062492 0.937500
vt 0.062501 0.987520
vt 0.124996 0.987511
vt 0.125000 0.999995
vt 0.062500 1.000000
vt 0.062498 0.937495
vt 0.124998 0.937498
vt 0.124995 0.999998
vt 0.062495 0.999995
vt 0.000000 0.943750
vt 0.062500 0.943750
vt 0.062498 0.999969
vt 0.000005 0.999944
vt 0.000000 0.943750
vt 0.062500 0.943750
vt 0.062498 0.999969
vt 0.000005 0.999944
vt 0.062492 0.937500
vt 0.124992 0.937492
vt 0.125000 0.999992
vt 0.062500 1.000000
vt 0.062502 0.987516
vt 0.124997 0.987514
vt 0.124999 0.999998
vt 0.062499 0.999997
vn 0.000000 1.000000 0.000000
vn 0.000000 1.000000 0.000000
vn 0.000000 1.000000 0.000000
vn 0.000000 1.000000 0.000000
vn 1.000000 -0.000000 0.000000
vn 1.000000 -0.000000 0.000000
vn 1.000000 -0.000000 0.000000
vn 1.000000 -0.000000 0.000000
vn -1.000000 0.000000 0.000000
vn -1.000000 0.000000 0.000000
vn -1.000000 0.000000 0.000000
vn -1.000000 0.000000 0.000000
vn -1.000000 0.000000 0.000000
vn -1.000000 0.000000 0.000000
vn -1.000000 0.000000 0.000000
vn -1.000000 0.000000 0.000000
vn 1.000000 0.000000 0.000000
vn 1.000000 0.000000 0.000000
vn 1.000000 0.000000 0.000000
vn 1.000000 0.000000 0.000000
vn 1.000000 -0.000000 0.000000
vn 1.000000 -0.000000 0.000000
vn 1.000000 0.000000 0.000000
vn 1.000000 0.000000 0.000000
vn -1.000000 0.000000 0.000000
vn -1.000000 0.000000 0.000000
vn -1.000000 0.000000 0.000000
vn -1.000000 0.000000 0.000000
vn -1.000000 0.000000 0.000000
vn -1.000000 0.000000 0.000000
vn -1.000000 0.000000 0.000000
vn -1.000000 0.000000 0.000000
vn -1.000000 0.000000 0.000000
vn -1.000000 0.000000 0.000000
vn -1.000000 0.000000 0.000000
vn -1.000000 0.000000 0.000000
s off
g ModWall1
usemtl lambert2SG
f 1/1/1 2/2/2 4/3/3 3/4/4
f 8/5/5 5/6/6 13/7/7 14/8/8
f 15/9/9 16/10/10 1/11/11 3/12/12
f 9/13/13 10/14/14 7/15/15 6/16/16
f 12/17/17 11/18/18 5/19/19 8/20/20
f 14/21/21 13/22/22 4/23/23 2/24/24
f 6/25/25 7/26/26 16/27/27 15/28/28
